<p>[gdigrab @ 0000014d449bc000] Capturing whole desktop as 1920x1080x32 at (0,0)
</p><p>[gdigrab @ 0000014d449bc000] Stream #0: not enough frames to estimate rate; consider increasing probesize
</p><p>Input #0, gdigrab, from 'desktop':
  Duration: N/A, start: 1517487613.344942</p><p>, bitrate: 1658890 kb/s
    Stream #0:0: Video: bmp, bgra, 1920x1080, 1658890 kb/s, 25 fps, 1000k tbr, 1000k tbn, 1000k tbc
</p><p>Stream mapping:
  Stream #0:0 -> #0:0 (bmp (native) -> h264 (libx264))
Press [q] to stop, [?] for help
</p><p>[libx264 @ 0000014d449c0cc0] using cpu capabilities: MMX2 SSE2Fast SSSE3 SSE4.2 AVX FMA3 BMI2 AVX2
</p><p>[libx264 @ 0000014d449c0cc0] profile High, level 3.1
</p><p>[libx264 @ 0000014d449c0cc0] 264 - core 155 r2893 b00bcaf - H.264/MPEG-4 AVC codec - Copyleft 2003-2017 - http://www.videolan.org/x264.html - options: cabac=1 ref=3 deblock=1:0:0 analyse=0x3:0x113 me=hex subme=7 psy=1 psy_rd=1.00:0.00 mixed_ref=1 me_range=16 chroma_me=1 trellis=1 8x8dct=1 cqm=0 deadzone=21,11 fast_pskip=1 chroma_qp_offset=-2 threads=12 lookahead_threads=2 sliced_threads=0 nr=0 decimate=1 interlaced=0 bluray_compat=0 constrained_intra=0 bframes=3 b_pyramid=2 b_adapt=1 b_bias=0 direct=1 weightb=1 open_gop=0 weightp=2 keyint=250 keyint_min=25 scenecut=40 intra_refresh=0 rc_lookahead=40 rc=abr mbtree=1 bitrate=1024 ratetol=1.0 qcomp=0.60 qpmin=0 qpmax=69 qpstep=4 ip_ratio=1.40 aq=1:1.00
</p><p>Output #0, mp4, to 'C:\Users\wwp\desktop\fup00.mp4':
  Metadata:
    encoder         : Lavf58.6.100
</p><p>    Stream #0:0: Video: h264 (libx264) (avc1 / 0x31637661), yuv420p, 1280x720, q=-1--1, 1024 kb/s, 25 fps, 12800 tbn, 25 tbc
    Metadata:
      encoder         : Lavc58.9.100 libx264
    Side data:
      cpb: bitrate max/min/avg: 0/0/1024000 buffer size: 0 vbv_delay: -1
</p><p>frame=    7 fps=0.0 q=0.0 size=       0kB time=00:00:00.00 bitrate=N/A speed=   0x    </p><p>frame=   18 fps= 17 q=0.0 size=       0kB time=00:00:00.00 bitrate=N/A speed=   0x    </p><p>frame=   31 fps= 20 q=0.0 size=       0kB time=00:00:00.00 bitrate=N/A speed=   0x    </p><p>frame=   44 fps= 21 q=0.0 size=       0kB time=00:00:00.00 bitrate=N/A speed=   0x    </p><p>frame=   56 fps= 22 q=0.0 size=       0kB time=00:00:00.00 bitrate=N/A speed=   0x    </p><p>frame=   69 fps= 22 q=31.0 size=       0kB time=00:00:00.40 bitrate=   1.0kbits/s speed=0.129x    </p><p>frame=   82 fps= 23 q=23.0 size=       0kB time=00:00:00.92 bitrate=   0.4kbits/s speed=0.254x    </p><p>frame=   96 fps= 23 q=22.0 size=       0kB time=00:00:01.48 bitrate=   0.3kbits/s speed=0.356x    </p><p>frame=  109 fps= 23 q=18.0 size=       0kB time=00:00:02.00 bitrate=   0.2kbits/s speed=0.426x    </p><p>frame=  121 fps= 23 q=19.0 size=       0kB time=00:00:02.48 bitrate=   0.2kbits/s speed=0.478x    </p><p>frame=  132 fps= 23 q=16.0 size=       0kB time=00:00:02.92 bitrate=   0.1kbits/s speed=0.512x    </p><p>frame=  146 fps= 23 q=14.0 size=       0kB time=00:00:03.48 bitrate=   0.1kbits/s speed=0.558x    </p><p>frame=  159 fps= 24 q=13.0 size=       0kB time=00:00:04.00 bitrate=   0.1kbits/s speed=0.592x    </p><p>frame=  171 fps= 24 q=12.0 size=     256kB time=00:00:04.48 bitrate= 468.2kbits/s speed=0.618x    </p><p>frame=  178 fps= 23 q=-1.0 Lsize=     298kB time=00:00:07.00 bitrate= 348.2kbits/s speed=0.908x    
video:295kB audio:0kB subtitle:0kB other streams:0kB global headers:0kB muxing overhead: 0.984503%
</p><p>[libx264 @ 0000014d449c0cc0] frame I:1     Avg QP:20.89  size: 30954
[libx264 @ 0000014d449c0cc0] frame P:45    Avg QP: 7.82  size:  5486
</p><p>[libx264 @ 0000014d449c0cc0] frame B:132   Avg QP:19.31  size:   175
[libx264 @ 0000014d449c0cc0] consecutive B-frames:  1.1%  0.0%  0.0% 98.9%
[libx264 @ 0000014d449c0cc0] mb I  I16..4: 29.5% 53.0% 17.6%
[libx264 @ 0000014d449c0cc0] mb P  I16..4:  0.5%  0.2%  0.1%  P16..4: 10.5%  0.7%  1.4%  0.0%  0.0%    skip:86.7%
[libx264 @ 0000014d449c0cc0] mb B  I16..4:  0.0%  0.0%  0.0%  B16..8:  4.8%  0.0%  0.0%  direct: 0.0%  skip:95.2%  L0:17.0% L1:82.9% BI: 0.1%
[libx264 @ 0000014d449c0cc0] final ratefactor: 8.72
[libx264 @ 0000014d449c0cc0] 8x8 transform intra:45.5% inter:48.0%
[libx264 @ 0000014d449c0cc0] coded y,uvDC,uvAC intra: 26.6% 40.1% 24.1% inter: 1.5% 1.7% 1.4%
[libx264 @ 0000014d449c0cc0] i16 v,h,dc,p: 37% 51%  4%  9%
[libx264 @ 0000014d449c0cc0] i8 v,h,dc,ddl,ddr,vr,hd,vl,hu: 45% 19% 26%  1%  2%  2%  3%  1%  2%
[libx264 @ 0000014d449c0cc0] i4 v,h,dc,ddl,ddr,vr,hd,vl,hu: 31% 37% 16%  2%  3%  3%  4%  2%  3%
[libx264 @ 0000014d449c0cc0] i8c dc,h,v,p: 60% 27% 11%  3%
[libx264 @ 0000014d449c0cc0] Weighted P-Frames: Y:0.0% UV:0.0%
[libx264 @ 0000014d449c0cc0] </p><p>ref P L0: 91.2%  0.7%  7.1%  0.9%
[libx264 @ 0000014d449c0cc0] ref B L0: 61.5% 38.1%  0.4%
[libx264 @ 0000014d449c0cc0] ref B L1: 88.2% 11.8%
[libx264 @ 0000014d449c0cc0] kb/s:338.17
</p>